<svg width="96" height="138" viewBox="0 0 96 138" fill="currentColor" aria-hidden="true" xmlns="http://www.w3.org/2000/svg">
<path fill-rule="evenodd" clip-rule="evenodd" d="M95.3081 47.8004C95.3081 21.3978 73.9749 0 47.6563 0C21.3378 0 0 21.3978 0 47.8004L10.08 124.16C10.3676 126.353 11.9472 128.162 14.0791 128.739L44.9355 137.1C46.7159 137.581 48.5922 137.581 50.3772 137.1L81.2336 128.739C83.3655 128.162 84.9405 126.353 85.2327 124.16L95.3127 47.8004H95.3081ZM20.854 109.05V88.4119H25.264L30.3314 102.737L35.3988 88.4119H39.8088V109.05H35.2162V100.219L31.911 109.05H28.7518L25.4466 100.219V109.05H20.854ZM56.5632 92.1253V88.4117V88.4072H45.1729V109.045H56.5632V105.331H50.1353V99.9646H55.5725V96.251H50.1353V92.1253H56.5632ZM60.859 109.049V88.4117H67.6567C69.7384 88.4117 71.391 88.8788 72.6145 89.8083C73.838 90.7379 74.4497 91.9696 74.4497 93.5036V103.962C74.4497 105.487 73.838 106.714 72.6145 107.648C71.391 108.582 69.7384 109.049 67.6567 109.049H60.859ZM65.8169 105.336H67.6521C68.241 105.336 68.693 105.208 69.0125 104.956C69.3321 104.704 69.4919 104.37 69.4919 103.958V93.499C69.4919 93.0869 69.3321 92.7527 69.0125 92.5008C68.693 92.249 68.241 92.1208 67.6521 92.1208H65.8169V105.331V105.336ZM20.854 110.263V121.779H23.4151V117.786H24.3647C24.6705 117.786 24.9034 117.855 25.0677 117.997C25.2321 118.139 25.3142 118.327 25.3142 118.556V121.779H27.8753V118.556C27.8753 118.111 27.7247 117.731 27.4234 117.42C27.2807 117.27 27.1084 117.139 26.9066 117.024C27.135 116.838 27.3255 116.625 27.4781 116.385C27.7429 115.968 27.8753 115.492 27.8753 114.947V113.102C27.8753 112.25 27.5603 111.563 26.9257 111.041C26.2957 110.524 25.4421 110.263 24.3647 110.263H20.854ZM24.3647 115.717H23.4151V115.712V112.333H24.3647C24.6705 112.333 24.9034 112.401 25.0677 112.543C25.2321 112.685 25.3142 112.873 25.3142 113.102V114.947C25.3142 115.181 25.2321 115.364 25.0677 115.506C24.9034 115.648 24.666 115.717 24.3647 115.717ZM37.3436 110.263V119.187C37.3436 120.039 37.0286 120.721 36.394 121.248C35.7595 121.77 34.9058 122.031 33.8329 122.031C32.7601 122.031 31.911 121.77 31.2764 121.248C30.6418 120.726 30.3223 120.039 30.3223 119.187V110.263H32.8834V119.187C32.8834 119.416 32.9655 119.604 33.1299 119.746C33.2942 119.888 33.5271 119.957 33.8329 119.957C34.1388 119.957 34.3716 119.888 34.536 119.746C34.7003 119.604 34.7825 119.421 34.7825 119.187V110.263H37.3436ZM40.0188 110.263V121.784H42.3927V115.89L44.9538 121.779H46.8529V110.258H44.479V116.152L41.9179 110.263H40.0188ZM49.6195 121.784V110.263H51.5186L54.0797 116.152V110.258H56.4536V121.779H54.5545L51.9934 115.89V121.784H49.6195ZM65.1001 112.337V110.263H59.2201V121.784H65.1001V119.709H61.7812V116.715H64.5888V114.64H61.7812V112.337H65.1001ZM67.3234 121.779V110.263H70.8341C71.9114 110.263 72.7651 110.524 73.3951 111.041C74.0297 111.563 74.3447 112.25 74.3447 113.102V114.947C74.3447 115.492 74.2123 115.968 73.9475 116.385C73.7949 116.625 73.6044 116.838 73.376 117.024C73.5778 117.138 73.7501 117.27 73.8928 117.42C74.1941 117.731 74.3447 118.111 74.3447 118.555V121.779H71.7836V118.555C71.7836 118.326 71.7014 118.139 71.5371 117.997C71.3727 117.855 71.1399 117.786 70.8341 117.786H69.8845V121.779H67.3234ZM69.8845 115.716H70.8341C71.1354 115.716 71.3727 115.648 71.5371 115.506C71.7014 115.364 71.7836 115.181 71.7836 114.947V113.102C71.7836 112.873 71.7014 112.685 71.5371 112.543C71.3727 112.401 71.1399 112.333 70.8341 112.333H69.8845V115.712V115.716ZM61.7994 48.3911L78.3711 57.9887C79.1609 58.4466 79.4348 59.4678 78.9783 60.2599L73.5639 69.6653C73.1074 70.4574 72.0894 70.7322 71.2996 70.2743L54.7278 60.6766V79.8673C54.7278 80.7831 53.9837 81.5295 53.0707 81.5295H42.242C41.3289 81.5295 40.5848 80.7831 40.5848 79.8673V60.6766L24.013 70.2743C23.2232 70.7322 22.2052 70.4574 21.7487 69.6653L16.3343 60.2599C15.8778 59.4678 16.1517 58.4466 16.9415 57.9887L33.5133 48.3911L16.9415 38.7935C16.1517 38.3356 15.8778 37.3145 16.3343 36.5223L21.7487 27.117C22.2052 26.3248 23.2232 26.0501 24.013 26.508L40.5848 36.1056V16.9149C40.5848 15.9991 41.3289 15.2527 42.242 15.2527H53.0707C53.9837 15.2527 54.7278 15.9991 54.7278 16.9149V36.1056L71.2996 26.508C72.0894 26.0501 73.1074 26.3248 73.5639 27.117L78.9783 36.5223C79.4348 37.3145 79.1609 38.3356 78.3711 38.7935L61.7994 48.3911Z"/>
</svg>
