<svg width="573" height="117" viewBox="0 0 573 117" fill="none" xmlns="http://www.w3.org/2000/svg">
			<path fill-rule="evenodd" clip-rule="evenodd" d="M78.4648 39.3849C78.4648 17.6305 60.9017 0 39.2344 0C17.5669 0 0 17.6305 0 39.3849L8.29863 102.301C8.5354 104.108 9.83584 105.598 11.591 106.074L36.9943 112.963C38.46 113.359 40.0048 113.359 41.4743 112.963L66.8777 106.074C68.6329 105.598 69.9294 104.108 70.1699 102.301L78.4686 39.3849H78.4648ZM17.1685 89.8508V72.8467H20.7991L24.9709 84.6498L29.1429 72.8467H32.7735V89.8508H28.9925V82.575L26.2714 89.8508H23.6705L20.9494 82.575V89.8508H17.1685ZM46.5668 75.9061V72.8463V72.8425H37.1895V89.8468H46.5668V86.787H41.2749V82.3653H45.7512V79.3055H41.2749V75.9061H46.5668ZM50.1035 89.8506V72.8463H55.6999C57.4137 72.8463 58.7742 73.2311 59.7816 73.9971C60.7889 74.763 61.2925 75.778 61.2925 77.0418V85.659C61.2925 86.9153 60.7889 87.9265 59.7816 88.696C58.7742 89.4657 57.4137 89.8506 55.6999 89.8506H50.1035ZM54.1852 86.7908H55.6961C56.1811 86.7908 56.5531 86.6853 56.8162 86.4776C57.0793 86.2701 57.2108 85.9948 57.2108 85.6553V77.038C57.2108 76.6985 57.0793 76.4229 56.8162 76.2155C56.5531 76.008 56.1811 75.9023 55.6961 75.9023H54.1852V86.787V86.7908ZM17.1685 90.8507V100.339H19.2769V97.0494H20.0587C20.3105 97.0494 20.5022 97.106 20.6375 97.223C20.7728 97.34 20.8404 97.4946 20.8404 97.6833V100.339H22.949V97.6833C22.949 97.3173 22.8248 97.0041 22.5768 96.7477C22.4593 96.6243 22.3175 96.5158 22.1514 96.4217C22.3395 96.2682 22.4964 96.0928 22.622 95.8949C22.8399 95.5516 22.949 95.1592 22.949 94.7103V93.1899C22.949 92.4881 22.6895 91.9221 22.1671 91.4921C21.6485 91.0657 20.9456 90.8507 20.0587 90.8507H17.1685ZM20.0587 95.3441H19.2769V95.3404V92.556H20.0587C20.3105 92.556 20.5022 92.6126 20.6375 92.7296C20.7728 92.8464 20.8404 93.0012 20.8404 93.1899V94.7103C20.8404 94.9027 20.7728 95.0535 20.6375 95.1705C20.5022 95.2875 20.3067 95.3441 20.0587 95.3441ZM30.7443 90.8503V98.2037C30.7443 98.9055 30.485 99.4675 29.9626 99.9015C29.4402 100.332 28.7373 100.547 27.854 100.547C26.9708 100.547 26.2717 100.332 25.7493 99.9015C25.2269 99.4713 24.9639 98.9055 24.9639 98.2037V90.8503H27.0723V98.2037C27.0723 98.3924 27.14 98.547 27.2753 98.664C27.4106 98.781 27.6022 98.8374 27.854 98.8374C28.1057 98.8374 28.2975 98.781 28.4328 98.664C28.5681 98.547 28.6357 98.3962 28.6357 98.2037V90.8503H30.7443ZM32.9463 90.8503V100.343H34.9008V95.4869L37.0092 100.339H38.5726V90.8465H36.6183V95.7027L34.5097 90.8503H32.9463ZM40.8501 100.343V90.8503H42.4137L44.5221 95.7026V90.8465H46.4766V100.339H44.913L42.8046 95.4869V100.343H40.8501ZM53.5956 92.5595V90.8503H48.7546V100.343H53.5956V98.6337H50.8632V96.1663H53.1747V94.4572H50.8632V92.5595H53.5956ZM55.4255 100.339V90.8503H58.3156C59.2027 90.8503 59.9056 91.0655 60.4242 91.4917C60.9466 91.9219 61.2059 92.4879 61.2059 93.1895V94.71C61.2059 95.159 61.097 95.5514 60.8789 95.8947C60.7533 96.0925 60.5965 96.2678 60.4085 96.4213C60.5746 96.5154 60.7165 96.6239 60.8339 96.7473C61.0819 97.0039 61.2059 97.317 61.2059 97.6831V100.339H59.0975V97.6831C59.0975 97.4944 59.0298 97.3396 58.8945 97.2228C58.7592 97.1058 58.5674 97.0492 58.3156 97.0492H57.5339V100.339H55.4255ZM57.5339 95.3439H58.3156C58.5637 95.3439 58.7592 95.2873 58.8945 95.1703C59.0298 95.0533 59.0975 94.9025 59.0975 94.71V93.1895C59.0975 93.001 59.0298 92.8462 58.8945 92.7292C58.7592 92.6124 58.5674 92.5558 58.3156 92.5558H57.5339V95.3402V95.3439ZM50.8781 39.8715L64.5213 47.7794C65.1715 48.1567 65.3969 48.9979 65.0211 49.6508L60.5637 57.4002C60.1879 58.0529 59.3497 58.2791 58.6993 57.902L45.0563 49.9941V65.806C45.0563 66.5606 44.4437 67.1755 43.6919 67.1755H34.777C34.0252 67.1755 33.4127 66.5606 33.4127 65.806V49.9941L19.7695 57.902C19.1193 58.2791 18.2812 58.0529 17.9054 57.4002L13.4478 49.6508C13.072 48.9979 13.2975 48.1567 13.9477 47.7794L27.5909 39.8715L13.9477 31.9635C13.2975 31.5862 13.072 30.7449 13.4478 30.0922L17.9054 22.3428C18.2812 21.6901 19.1193 21.4636 19.7695 21.841L33.4127 29.7489V13.9369C33.4127 13.1823 34.0252 12.5673 34.777 12.5673H43.6919C44.4437 12.5673 45.0563 13.1823 45.0563 13.9369V29.7489L58.6993 21.841C59.3497 21.4636 60.1879 21.6901 60.5637 22.3428L65.0211 30.0922C65.3969 30.7449 65.1715 31.5862 64.5213 31.9635L50.8781 39.8715Z" fill="#AA0000"/>
			<path d="M107.134 86.5909V29.998H116.154L127.73 73.8387H125.325L136.901 29.998H145.921V86.5909H136.525V57.8417L137.728 58.0682L129.76 86.5909H123.296L115.328 58.0682L116.53 57.8417V86.5909H107.134Z" fill="#AA0000"/>
			<path d="M180.195 29.998V40.1847H167.04V51.5034H178.165V61.6899H167.04V76.4042H180.195V86.5909H156.892V29.998H180.195Z" fill="#AA0000"/>
			<path d="M188.989 86.5909V29.998H202.896C207.154 29.998 210.536 31.2733 213.043 33.8274C215.551 36.3818 216.801 39.7585 216.801 43.9575V72.6313C216.801 76.8078 215.551 80.177 213.043 82.7426C210.536 85.3081 207.154 86.5909 202.896 86.5909H188.989ZM199.137 76.4042H202.896C204.098 76.4042 205.027 76.0571 205.677 75.3666C206.327 74.6761 206.654 73.7631 206.654 72.6313V43.9575C206.654 42.8258 206.327 41.9128 205.677 41.2223C205.027 40.532 204.098 40.1847 202.896 40.1847H199.137V76.4042Z" fill="#AA0000"/>
			<path d="M226.649 86.5909V29.998H240.555C244.813 29.998 248.197 31.2733 250.702 33.8274C253.21 36.3818 254.462 39.7585 254.462 43.9575V53.0125C254.462 55.6799 253.935 58.0304 252.883 60.0676C251.831 62.1051 250.328 63.7537 248.372 65.0102L247.622 61.6899C249.801 62.4709 251.484 63.6255 252.676 65.1611C253.868 66.6967 254.462 68.5566 254.462 70.7449V86.5909H244.313V70.7449C244.313 69.6129 243.987 68.6999 243.337 68.0096C242.686 67.3191 241.758 66.9721 240.555 66.9721H236.797V86.5909H226.649ZM236.797 56.7853H240.555C241.758 56.7853 242.686 56.4383 243.337 55.7478C243.987 55.0573 244.313 54.1443 244.313 53.0125V43.9575C244.313 42.8258 243.987 41.9128 243.337 41.2223C242.686 40.532 241.758 40.1847 240.555 40.1847H236.797V56.7853Z" fill="#AA0000"/>
			<path d="M291.971 29.998V73.8387C291.971 78.0152 290.718 81.3844 288.213 83.9498C285.705 86.5155 282.322 87.7983 278.064 87.7983C273.806 87.7983 270.454 86.5155 267.936 83.9498C265.416 81.3844 264.157 78.0152 264.157 73.8387V29.998H274.306V73.8387C274.306 74.9705 274.632 75.8835 275.283 76.574C275.933 77.2643 276.862 77.6116 278.064 77.6116C279.266 77.6116 280.195 77.2643 280.845 76.574C281.496 75.8835 281.822 74.9705 281.822 73.8387V29.998H291.971Z" fill="#AA0000"/>
			<path d="M302.569 86.5909V29.998H310.087L322.94 66.6702L320.234 66.7456V29.998H329.63V86.5909H322.114L309.259 49.9187L311.965 49.8433V86.5909H302.569Z" fill="#AA0000"/>
			<path d="M340.604 86.5909V29.998H348.123L360.975 66.6702L358.269 66.7456V29.998H367.665V86.5909H360.149L347.294 49.9187L350 49.8433V86.5909H340.604Z" fill="#AA0000"/>
			<path d="M401.943 29.998V40.1847H388.789V51.5034H399.912V61.6899H388.789V76.4042H401.943V86.5909H378.64V29.998H401.943Z" fill="#AA0000"/>
			<path d="M410.732 86.5909V29.998H424.639C428.897 29.998 432.28 31.2733 434.788 33.8274C437.295 36.3818 438.546 39.7585 438.546 43.9575V53.0125C438.546 55.6799 438.019 58.0304 436.967 60.0676C435.915 62.1051 434.411 63.7537 432.456 65.0102L431.705 61.6899C433.884 62.4709 435.57 63.6255 436.76 65.1611C437.952 66.6967 438.546 68.5566 438.546 70.7449V86.5909H428.397V70.7449C428.397 69.6129 428.071 68.6999 427.42 68.0096C426.77 67.3191 425.841 66.9721 424.639 66.9721H420.881V86.5909H410.732ZM420.881 56.7853H424.639C425.841 56.7853 426.77 56.4383 427.42 55.7478C428.071 55.0573 428.397 54.1443 428.397 53.0125V43.9575C428.397 42.8258 428.071 41.9128 427.42 41.2223C426.77 40.532 425.841 40.1847 424.639 40.1847H420.881V56.7853Z" fill="#AA0000"/>
			<path fill-rule="evenodd" clip-rule="evenodd" d="M561.371 29.998H475.619C469.197 29.998 463.99 35.2243 463.99 41.6712V74.9176C463.99 81.3645 469.197 86.5909 475.619 86.5909H561.371C567.795 86.5909 573 81.3645 573 74.9176V41.6712C573 35.2243 567.795 29.998 561.371 29.998ZM481.485 74.959V41.0033H489.829C492.385 41.0033 494.415 41.7692 495.919 43.3011C497.423 44.8327 498.173 46.8589 498.173 49.3792V53.001C498.173 54.3139 497.96 55.51 497.531 56.5892C497.322 57.1156 497.069 57.5999 496.772 58.042C497.171 58.5232 497.514 59.0688 497.801 59.679C498.349 60.8411 498.625 62.1615 498.625 63.6405V66.5833C498.625 69.0885 497.872 71.1107 496.369 72.6501C494.865 74.1895 492.837 74.959 490.281 74.959H481.485ZM487.575 55.2648H489.829C490.551 55.2648 491.107 55.0573 491.498 54.6424C491.889 54.2272 492.084 53.6802 492.084 53.001V49.3792C492.084 48.7 491.889 48.153 491.498 47.7379C491.107 47.323 490.551 47.1155 489.829 47.1155H487.575V55.2648ZM487.575 68.847H490.281C491.003 68.847 491.559 68.6395 491.95 68.2246C492.341 67.8095 492.535 67.2625 492.535 66.5833V63.6405C492.535 62.9615 492.341 62.4143 491.95 61.9994C491.559 61.5842 491.003 61.3768 490.281 61.3768H487.575V68.847ZM518.153 47.1155V41.0033H504.171V74.959H518.153V68.847H510.261V60.0185H516.936V53.9065H510.261V47.1155H518.153ZM525.55 74.959V47.1155H520.589V41.0033H536.6V47.1155H531.639V74.959H525.55ZM543.229 41.0033L536.826 74.959H543.049L543.861 69.662H549.093L549.858 74.959H556.084L549.814 41.0033H543.229ZM548.189 63.55H544.762L546.513 51.9875L548.189 63.55Z" fill="#AA0000"/>
</svg>
