<?xml version="1.0" encoding="UTF-8"?>
<svg id="Layer_1" data-name="Layer 1" xmlns="http://www.w3.org/2000/svg" xmlns:xlink="http://www.w3.org/1999/xlink" viewBox="0 0 1000 1000">
  <defs>
    <style>
      .cls-1 {
        fill: url(#linear-gradient);
      }

      .cls-1, .cls-2 {
        stroke-width: 0px;
      }

      .cls-2 {
        fill: #fff;
      }
    </style>
    <linearGradient id="linear-gradient" x1="925.6383" y1="500.0002" x2="74.3617" y2="500.0002" gradientUnits="userSpaceOnUse">
      <stop offset="0" stop-color="#ed1c24"/>
      <stop offset=".5754" stop-color="#f60"/>
    </linearGradient>
  </defs>
  <path class="cls-1" d="M901.4138,140.09c-57.791-10.2973-103.3604-56.7949-113.355-115.6997C785.6815,10.3755,773.755.0004,759.5401.0004H240.4599C226.2451.0004,214.3186,10.3755,211.9413,24.3903c-9.9947,58.9048-55.564,105.4024-113.3551,115.6997-13.9324,2.4819-24.2244,14.3427-24.2244,28.4941v179.3077c0,275.203,165.0743,516.1054,411.9518,648.6675,8.5424,4.5876,18.8305,4.5876,27.3731,0,246.8773-132.5621,411.9516-373.4645,411.9516-648.6675v-179.3077c0-14.1514-10.2921-26.0123-24.2244-28.4941Z"/>
  <path class="cls-2" d="M698.0607,503.502l-106.8511-61.6903,106.8511-61.6903c5.0916-2.9397,6.8524-9.5107,3.9125-14.6023l-34.9151-60.4751c-2.9399-5.0916-9.5108-6.8523-14.6025-3.9126l-106.8506,61.6903v-123.3808c0-5.8793-4.8102-10.6896-10.6896-10.6896h-69.8307c-5.8794,0-10.6896,4.8103-10.6896,10.6896v123.3808l-106.8506-61.6904c-5.0916-2.9396-11.663-1.179-14.6025,3.9126l-34.9151,60.4751c-2.9399,5.0916-1.1792,11.6626,3.9125,14.6022l106.8511,61.6904-106.8511,61.6903c-5.0916,2.9396-6.8524,9.5106-3.9125,14.6023l34.9151,60.475c2.9395,5.0916,9.5108,6.8523,14.6021,3.9127l106.8511-61.6903v123.3808c0,5.8793,4.8102,10.6896,10.6896,10.6896h69.8307c5.8794,0,10.6896-4.8103,10.6896-10.6896v-123.3808l106.8506,61.6904c5.0916,2.9396,11.6626,1.179,14.6025-3.9127l34.9151-60.475c2.9399-5.0916,1.1792-11.6626-3.9125-14.6023Z"/>
</svg>