<svg width="28" height="21" viewBox="0 0 28 21" fill="none" xmlns="http://www.w3.org/2000/svg">
	<rect y="0.5" width="28" height="20" rx="2" fill="white" />
	<mask id="mask0_80_1352" style="mask-type: luminance" maskUnits="userSpaceOnUse" x="0" y="0" width="28" height="21">
		<rect y="0.5" width="28" height="20" rx="2" fill="white" />
	</mask>
	<g mask="url(#mask0_80_1352)">
		<path
				fill-rule="evenodd"
				clip-rule="evenodd"
				d="M28 0.5H0V1.83333H28V0.5ZM28 3.16667H0V4.5H28V3.16667ZM0 5.83333H28V7.16667H0V5.83333ZM28 8.5H0V9.83333H28V8.5ZM0 11.1667H28V12.5H0V11.1667ZM28 13.8333H0V15.1667H28V13.8333ZM0 16.5H28V17.8333H0V16.5ZM28 19.1667H0V20.5H28V19.1667Z"
				fill="#D02F44"
		/>
		<rect y="0.5" width="12" height="9.33333" fill="#46467F" />
		<g filter="url(#filter0_d_80_1352)">
			<path
					fill-rule="evenodd"
					clip-rule="evenodd"
					d="M2.66683 2.50016C2.66683 2.86835 2.36835 3.16683 2.00016 3.16683C1.63197 3.16683 1.3335 2.86835 1.3335 2.50016C1.3335 2.13197 1.63197 1.8335 2.00016 1.8335C2.36835 1.8335 2.66683 2.13197 2.66683 2.50016ZM5.3335 2.50016C5.3335 2.86835 5.03502 3.16683 4.66683 3.16683C4.29864 3.16683 4.00016 2.86835 4.00016 2.50016C4.00016 2.13197 4.29864 1.8335 4.66683 1.8335C5.03502 1.8335 5.3335 2.13197 5.3335 2.50016ZM7.3335 3.16683C7.70169 3.16683 8.00016 2.86835 8.00016 2.50016C8.00016 2.13197 7.70169 1.8335 7.3335 1.8335C6.96531 1.8335 6.66683 2.13197 6.66683 2.50016C6.66683 2.86835 6.96531 3.16683 7.3335 3.16683ZM10.6668 2.50016C10.6668 2.86835 10.3684 3.16683 10.0002 3.16683C9.63197 3.16683 9.3335 2.86835 9.3335 2.50016C9.3335 2.13197 9.63197 1.8335 10.0002 1.8335C10.3684 1.8335 10.6668 2.13197 10.6668 2.50016ZM3.3335 4.50016C3.70169 4.50016 4.00016 4.20169 4.00016 3.8335C4.00016 3.46531 3.70169 3.16683 3.3335 3.16683C2.96531 3.16683 2.66683 3.46531 2.66683 3.8335C2.66683 4.20169 2.96531 4.50016 3.3335 4.50016ZM6.66683 3.8335C6.66683 4.20169 6.36835 4.50016 6.00016 4.50016C5.63197 4.50016 5.3335 4.20169 5.3335 3.8335C5.3335 3.46531 5.63197 3.16683 6.00016 3.16683C6.36835 3.16683 6.66683 3.46531 6.66683 3.8335ZM8.66683 4.50016C9.03502 4.50016 9.3335 4.20169 9.3335 3.8335C9.3335 3.46531 9.03502 3.16683 8.66683 3.16683C8.29864 3.16683 8.00016 3.46531 8.00016 3.8335C8.00016 4.20169 8.29864 4.50016 8.66683 4.50016ZM10.6668 5.16683C10.6668 5.53502 10.3684 5.8335 10.0002 5.8335C9.63197 5.8335 9.3335 5.53502 9.3335 5.16683C9.3335 4.79864 9.63197 4.50016 10.0002 4.50016C10.3684 4.50016 10.6668 4.79864 10.6668 5.16683ZM7.3335 5.8335C7.70169 5.8335 8.00016 5.53502 8.00016 5.16683C8.00016 4.79864 7.70169 4.50016 7.3335 4.50016C6.96531 4.50016 6.66683 4.79864 6.66683 5.16683C6.66683 5.53502 6.96531 5.8335 7.3335 5.8335ZM5.3335 5.16683C5.3335 5.53502 5.03502 5.8335 4.66683 5.8335C4.29864 5.8335 4.00016 5.53502 4.00016 5.16683C4.00016 4.79864 4.29864 4.50016 4.66683 4.50016C5.03502 4.50016 5.3335 4.79864 5.3335 5.16683ZM2.00016 5.8335C2.36835 5.8335 2.66683 5.53502 2.66683 5.16683C2.66683 4.79864 2.36835 4.50016 2.00016 4.50016C1.63197 4.50016 1.3335 4.79864 1.3335 5.16683C1.3335 5.53502 1.63197 5.8335 2.00016 5.8335ZM4.00016 6.50016C4.00016 6.86835 3.70169 7.16683 3.3335 7.16683C2.96531 7.16683 2.66683 6.86835 2.66683 6.50016C2.66683 6.13197 2.96531 5.8335 3.3335 5.8335C3.70169 5.8335 4.00016 6.13197 4.00016 6.50016ZM6.00016 7.16683C6.36835 7.16683 6.66683 6.86835 6.66683 6.50016C6.66683 6.13197 6.36835 5.8335 6.00016 5.8335C5.63197 5.8335 5.3335 6.13197 5.3335 6.50016C5.3335 6.86835 5.63197 7.16683 6.00016 7.16683ZM9.3335 6.50016C9.3335 6.86835 9.03502 7.16683 8.66683 7.16683C8.29864 7.16683 8.00016 6.86835 8.00016 6.50016C8.00016 6.13197 8.29864 5.8335 8.66683 5.8335C9.03502 5.8335 9.3335 6.13197 9.3335 6.50016ZM10.0002 8.50016C10.3684 8.50016 10.6668 8.20169 10.6668 7.8335C10.6668 7.46531 10.3684 7.16683 10.0002 7.16683C9.63197 7.16683 9.3335 7.46531 9.3335 7.8335C9.3335 8.20169 9.63197 8.50016 10.0002 8.50016ZM8.00016 7.8335C8.00016 8.20169 7.70169 8.50016 7.3335 8.50016C6.96531 8.50016 6.66683 8.20169 6.66683 7.8335C6.66683 7.46531 6.96531 7.16683 7.3335 7.16683C7.70169 7.16683 8.00016 7.46531 8.00016 7.8335ZM4.66683 8.50016C5.03502 8.50016 5.3335 8.20169 5.3335 7.8335C5.3335 7.46531 5.03502 7.16683 4.66683 7.16683C4.29864 7.16683 4.00016 7.46531 4.00016 7.8335C4.00016 8.20169 4.29864 8.50016 4.66683 8.50016ZM2.66683 7.8335C2.66683 8.20169 2.36835 8.50016 2.00016 8.50016C1.63197 8.50016 1.3335 8.20169 1.3335 7.8335C1.3335 7.46531 1.63197 7.16683 2.00016 7.16683C2.36835 7.16683 2.66683 7.46531 2.66683 7.8335Z"
					fill="url(#paint0_linear_80_1352)"
			/>
		</g>
	</g>
	<defs>
		<filter
				id="filter0_d_80_1352"
				x="1.3335"
				y="1.8335"
				width="9.3335"
				height="7.66675"
				filterUnits="userSpaceOnUse"
				color-interpolation-filters="sRGB"
		>
			<feFlood flood-opacity="0" result="BackgroundImageFix" />
			<feColorMatrix
					in="SourceAlpha"
					type="matrix"
					values="0 0 0 0 0 0 0 0 0 0 0 0 0 0 0 0 0 0 127 0"
					result="hardAlpha"
			/>
			<feOffset dy="1" />
			<feColorMatrix type="matrix" values="0 0 0 0 0 0 0 0 0 0 0 0 0 0 0 0 0 0 0.06 0" />
			<feBlend mode="normal" in2="BackgroundImageFix" result="effect1_dropShadow_80_1352" />
			<feBlend mode="normal" in="SourceGraphic" in2="effect1_dropShadow_80_1352" result="shape" />
		</filter>
		<linearGradient
				id="paint0_linear_80_1352"
				x1="1.3335"
				y1="1.8335"
				x2="1.3335"
				y2="8.50016"
				gradientUnits="userSpaceOnUse"
		>
			<stop stop-color="white" />
			<stop offset="1" stop-color="#F0F0F0" />
		</linearGradient>
	</defs>
</svg>