<svg width="20" height="12" viewBox="0 0 20 12" fill="none" xmlns="http://www.w3.org/2000/svg">
<path fill-rule="evenodd" clip-rule="evenodd" d="M10.6197 11.2325C10.4493 11.4038 10.2182 11.5 9.97732 11.5C9.73641 11.5 9.50535 11.4038 9.3349 11.2325L0.24399 2.08413C0.0834083 1.91071 -0.00401378 1.68134 0.000141633 1.44433C0.00429705 1.20733 0.0997055 0.981201 0.266267 0.813588C0.432828 0.645974 0.657537 0.549964 0.893054 0.545782C1.12857 0.5416 1.35651 0.629574 1.52884 0.79117L9.97732 9.29301L18.4258 0.79117C18.509 0.701289 18.6094 0.629197 18.7209 0.579196C18.8324 0.529195 18.9528 0.50231 19.0749 0.500142C19.1969 0.497975 19.3182 0.520571 19.4314 0.566582C19.5446 0.612593 19.6474 0.681077 19.7337 0.767948C19.8201 0.854819 19.8881 0.958297 19.9338 1.07221C19.9796 1.18612 20.002 1.30814 19.9999 1.43097C19.9977 1.5538 19.971 1.67495 19.9213 1.78716C19.8716 1.89938 19.8 2.00038 19.7107 2.08413L10.6197 11.2325Z" fill="white"/>
</svg>
