<svg width="24" height="24" viewBox="0 0 24 24" fill="none" xmlns="http://www.w3.org/2000/svg">
<path fill-rule="evenodd" clip-rule="evenodd" d="M19.916 4.62594C20.0815 4.73628 20.1964 4.90783 20.2354 5.10287C20.2744 5.2979 20.2343 5.50044 20.124 5.66594L11.124 19.1659C11.0624 19.2582 10.9812 19.3356 10.8861 19.3927C10.7909 19.4497 10.6844 19.485 10.574 19.4959C10.4636 19.5068 10.3522 19.4931 10.2478 19.4557C10.1433 19.4184 10.0485 19.3584 9.97003 19.2799L3.97003 13.2799C3.83755 13.1378 3.76543 12.9497 3.76885 12.7554C3.77228 12.5611 3.85099 12.3757 3.98841 12.2383C4.12582 12.1009 4.31121 12.0222 4.50551 12.0188C4.69981 12.0153 4.88785 12.0875 5.03003 12.2199L10.383 17.5729L18.876 4.83394C18.9864 4.66845 19.1579 4.55357 19.353 4.51457C19.548 4.47556 19.7505 4.51562 19.916 4.62594Z" fill="black"/>
</svg>
