<svg width="10" height="11" viewBox="0 0 10 11" fill="none" xmlns="http://www.w3.org/2000/svg">
<path d="M4.71409 7.38911L4.71414 7.38916C4.78662 7.45614 4.89278 7.49993 5.01096 7.5L4.71409 7.38911ZM4.71409 7.38911L1.11409 4.06259L1.11414 4.06253M4.71409 7.38911L1.11414 4.06253M1.11414 4.06253L1.10769 4.05677M1.11414 4.06253L1.10769 4.05677M1.10769 4.05677C1.07097 4.024 1.04408 3.98698 1.02647 3.94909C1.00892 3.91134 1.00037 3.87239 1.00001 3.83415C0.999652 3.79593 1.00746 3.75697 1.02421 3.71915C1.04101 3.6812 1.06704 3.64397 1.10293 3.61081C1.13891 3.57757 1.18383 3.54935 1.23601 3.52962C1.28823 3.50988 1.34539 3.49955 1.40381 3.50002C1.46223 3.50048 1.51908 3.51173 1.57076 3.53225C1.62239 3.55274 1.66657 3.58155 1.70171 3.61517L1.70166 3.61523M1.10769 4.05677L1.70166 3.61523M1.70166 3.61523L1.70803 3.62111M1.70166 3.61523L1.70803 3.62111M1.70803 3.62111L4.67173 6.35967L5.01106 6.67322M1.70803 3.62111L5.01106 6.67322M5.01106 6.67322L5.35039 6.35967M5.01106 6.67322L5.35039 6.35967M5.35039 6.35967L8.31025 3.62466C8.3835 3.56049 8.48827 3.51953 8.6038 3.52045C8.72068 3.52139 8.82538 3.565 8.89707 3.63124C8.96749 3.69631 8.99929 3.77568 8.99999 3.84954C9.00067 3.92246 8.97116 4.00086 8.90419 4.06614L5.30803 7.38911L5.30797 7.38916M5.35039 6.35967L5.30797 7.38916M5.30797 7.38916C5.2355 7.45614 5.12934 7.49993 5.01116 7.5L5.30797 7.38916Z" fill="#9CA3AF" stroke="#9CA3AF"/>
</svg>
