<?xml version="1.0" encoding="UTF-8"?>
<svg id="Layer_1" data-name="Layer 1" xmlns="http://www.w3.org/2000/svg" viewBox="0 0 1000 1000">
  <defs>
    <style>
      .cls-1 {
        fill: #a00;
      }

      .cls-1, .cls-2 {
        stroke-width: 0px;
      }

      .cls-3 {
        fill: none;
        stroke: #fff;
        stroke-miterlimit: 10;
        stroke-width: 30px;
      }

      .cls-2 {
        fill: #fff;
      }
    </style>
  </defs>
  <circle class="cls-1" cx="500" cy="500" r="416.609"/>
  <rect class="cls-2" x="218.9601" y="417.6571" width="562.0799" height="164.6858" rx="26.8816" ry="26.8816"/>
  <rect class="cls-2" x="417.6571" y="218.9601" width="164.6858" height="164.6858" rx="26.8816" ry="26.8816"/>
  <rect class="cls-2" x="417.6571" y="616.3541" width="164.6858" height="164.6858" rx="26.8816" ry="26.8816"/>
  <path class="cls-1" d="M488.7716,520.5847c-.3996.2421-.656.3916-.9067.5501-8.357,5.2817-16.7123,10.5659-25.0734,15.8411-.3977.2509-.8253.5176-1.2738.6123-1.1005.2326-2.0322-.1169-2.6828-1.0666-.3817-.5572-.7308-1.1367-1.0921-1.7077-2.7301-4.3146-5.458-8.6306-8.1912-12.9433-.4135-.6525-.6956-1.3245-.5316-2.1219.1675-.8143.641-1.3833,1.3332-1.8184,3.0301-1.9046,6.053-3.8209,9.0783-5.7331,6.0718-3.8379,12.1435-7.6759,18.2147-11.5146.2288-.1447.4525-.2975.7559-.4975-.3234-.2153-.5799-.3936-.8438-.5604-9.1181-5.7638-18.2257-11.5445-27.3674-17.2708-1.4198-.8893-1.8536-2.0826-.8092-3.6968,3.1133-4.8119,6.1455-9.6763,9.2095-14.5201.107-.1692.2126-.3394.3218-.5072.8079-1.2411,1.8877-1.4962,3.1423-.7073,3.39,2.1316,6.7721,4.2756,10.1573,6.4149,5.2682,3.3292,10.5362,6.6588,15.8053,9.9867.2056.1298.4208.2443.7537.4364,0-.3959,0-.6833,0-.9707,0-10.0893.0269-20.1787-.0227-30.2678-.0099-2.0135,1.0979-2.8534,2.8173-2.8381,5.7346.051,11.4699.0191,17.2049.02.2502,0,.5028-.0088.7503.0204,1.1891.1402,1.9404.953,1.9956,2.1511.0127.2749.0059.5507.0059.826.0002,9.8389.0002,19.6779.0002,29.5168v1.0235c.3723-.2209.6229-.3614.8654-.5146,8.2093-5.1873,16.4179-10.3758,24.6267-15.5639.2538-.1604.5022-.3313.7654-.4748,1.1896-.6486,2.5358-.3516,3.3428.7324.1044.1403.1956.2906.2892.4386,3.0107,4.759,6.0196,9.5193,9.0335,14.2763.3269.516.5833,1.0426.5742,1.6754-.012.8333-.343,1.5034-.991,2.0129-.2548.2003-.5388.3642-.8137.538-9.1598,5.7915-18.3203,11.5821-27.4801,17.3737-.205.1296-.4038.2689-.6804.4538.3075.1992.553.3618.8019.519,9.2666,5.8567,18.5336,11.7129,27.8003,17.5694.2115.1337.4279.2611.6305.4075.9206.6654,1.164,1.7296.6242,2.7211-.0956.1755-.2086.3417-.3156.5109-3.1438,4.971-6.2876,9.942-9.4326,14.9123-.1337.2113-.2633.4283-.4222.6198-.6178.7442-1.5648.953-2.4382.5361-.2473-.118-.478-.2723-.7105-.4192-8.3996-5.308-16.7983-10.6171-25.1977-15.9254-.2443-.1544-.4935-.3007-.8719-.5307v1.0262c0,9.7638.0002,19.5277-.0009,29.2915,0,.3253.0078.6525-.0237.9754-.0993,1.0183-.8979,1.8058-1.9127,1.899-.1989.0183-.4003.0132-.6006.0132-5.8853.0006-11.7706.0016-17.6559-.0026-.3234-.0002-.6586.0005-.9681-.0784-.868-.2213-1.4879-.9848-1.576-1.8991-.0263-.2731-.0132-.5503-.0133-.8256-.0005-9.9641-.0004-19.9282-.0004-29.8923,0-.2947,0-.5894,0-1.0328Z"/>
  <circle class="cls-3" cx="500" cy="500" r="368.9699"/>
</svg>