<?xml version="1.0" encoding="UTF-8"?>
<svg id="Layer_1" data-name="Layer 1" xmlns="http://www.w3.org/2000/svg" viewBox="0 0 1000 1000">
  <defs>
    <style>
      .cls-1 {
        fill: #a00;
      }

      .cls-1, .cls-2 {
        stroke-width: 0px;
      }

      .cls-2 {
        fill: #fff;
      }
    </style>
  </defs>
  <circle class="cls-1" cx="500" cy="500" r="500"/>
  <path class="cls-2" d="M716.6164,335.5029l-216.6164,125.1428-216.6164-125.1428v-65.2931c0-19.6582,21.2833-31.9422,38.3051-22.1084l178.3114,103.0133,178.3114-103.0133c17.0218-9.8338,38.3051,2.4503,38.3051,22.1084v65.2931Z"/>
  <path class="cls-2" d="M478.7475,835.754l-137.6055-105.4908c-36.4101-27.9126-57.7584-71.1784-57.7584-117.0565v-229.4228l195.3639,117.9847v333.9854Z"/>
  <path class="cls-2" d="M521.2525,835.754l137.6055-105.4908c36.4101-27.9126,57.7584-71.1784,57.7584-117.0565v-229.4228s-195.3639,117.9847-195.3639,117.9847v333.9854Z"/>
  <path class="cls-2" d="M500.0005,960.8273c-62.2035,0-122.5552-12.1868-179.3803-36.2218-54.8771-23.211-104.1589-56.4359-146.4742-98.7512-42.3164-42.3164-75.5413-91.597-98.7523-146.4742-24.035-56.825-36.2218-117.1768-36.2218-179.3803s12.1868-122.5558,36.2218-179.3803c23.211-54.8771,56.4359-104.1584,98.7523-146.4742,42.3152-42.3152,91.597-75.5407,146.4742-98.7517,56.825-24.0344,117.1768-36.2212,179.3803-36.2212s122.5552,12.1868,179.3803,36.2212c54.8771,23.211,104.1578,56.4365,146.4742,98.7517,42.3152,42.3158,75.5401,91.597,98.7512,146.4742,24.035,56.8245,36.2218,117.1768,36.2218,179.3803s-12.1868,122.5552-36.2218,179.3803c-23.211,54.8771-56.4359,104.1578-98.7512,146.4742-42.3164,42.3152-91.597,75.5401-146.4742,98.7512-56.825,24.035-117.1768,36.2218-179.3803,36.2218ZM500.0005,75.1775c-234.248,0-424.8236,190.5744-424.8236,424.8224s190.5756,424.8224,424.8236,424.8224,424.8224-190.5744,424.8224-424.8224S734.2485,75.1775,500.0005,75.1775Z"/>
  <path class="cls-2" d="M560.6588,229.2983l-32.7246-18.8936,32.7246-18.8934c1.5594-.9004,2.0986-2.9128,1.1982-4.4722l-10.6932-18.5214c-.9004-1.5594-2.9128-2.0986-4.4722-1.1982l-32.7245,18.8936v-37.7871c0-1.8006-1.4732-3.2738-3.2738-3.2738h-21.3866c-1.8006,0-3.2738,1.4732-3.2738,3.2738v37.7871l-32.7246-18.8936c-1.5593-.9004-3.5718-.3611-4.4721,1.1982l-10.6932,18.5214c-.9004,1.5594-.3611,3.5718,1.1982,4.4721l32.7246,18.8936-32.7246,18.8936c-1.5594.9003-2.0986,2.9127-1.1982,4.4721l10.6932,18.5214c.9003,1.5594,2.9127,2.0986,4.4721,1.1984l32.7246-18.8936v37.7871c0,1.8005,1.4732,3.2738,3.2738,3.2738h21.3866c1.8006,0,3.2738-1.4733,3.2738-3.2738v-37.7871l32.7245,18.8936c1.5594.9003,3.5718.361,4.4722-1.1984l10.6932-18.5212c.9003-1.5594.3611-3.5718-1.1982-4.4722Z"/>
</svg>