<?xml version="1.0" encoding="UTF-8"?>
<svg id="Layer_1" data-name="Layer 1" xmlns="http://www.w3.org/2000/svg" viewBox="0 0 1000 1000">
  <defs>
    <style>
      .cls-1 {
        fill: #a00;
      }

      .cls-1, .cls-2 {
        stroke-width: 0px;
      }

      .cls-2 {
        fill: #fff;
      }
    </style>
  </defs>
  <circle class="cls-1" cx="500" cy="500" r="500"/>
  <path class="cls-2" d="M500.0005,960.8273c-62.2035,0-122.5552-12.1868-179.3803-36.2218-54.8771-23.211-104.1589-56.4359-146.4742-98.7512-42.3164-42.3164-75.5413-91.597-98.7523-146.4742-24.035-56.825-36.2218-117.1768-36.2218-179.3803s12.1868-122.5558,36.2218-179.3803c23.211-54.8771,56.4359-104.1584,98.7523-146.4742,42.3152-42.3152,91.597-75.5407,146.4742-98.7517,56.825-24.0344,117.1768-36.2212,179.3803-36.2212s122.5552,12.1868,179.3803,36.2212c54.8771,23.211,104.1578,56.4365,146.4742,98.7517,42.3152,42.3158,75.5401,91.597,98.7512,146.4742,24.035,56.8245,36.2218,117.1768,36.2218,179.3803s-12.1868,122.5552-36.2218,179.3803c-23.211,54.8771-56.4359,104.1578-98.7512,146.4742-42.3164,42.3152-91.597,75.5401-146.4742,98.7512-56.825,24.035-117.1768,36.2218-179.3803,36.2218ZM500.0005,75.1775c-234.248,0-424.8236,190.5744-424.8236,424.8224s190.5756,424.8224,424.8236,424.8224,424.8224-190.5744,424.8224-424.8224S734.2485,75.1775,500.0005,75.1775Z"/>
  <path class="cls-2" d="M522.1551,145.9608l21.6151,241.8333c1.3713,15.3424,17.5452,24.6804,31.5178,18.1968l220.2414-102.1974c24.6054-11.4175,44.3457,22.7737,22.1551,38.3738l-198.6263,139.6359c-12.6013,8.8588-12.6013,27.5348,0,36.3936l198.6263,139.6359c22.1905,15.6001,2.4502,49.7913-22.1551,38.3738l-220.2414-102.1974c-13.9726-6.4836-30.1465,2.8544-31.5178,18.1968l-21.6151,241.8333c-2.4148,27.0176-41.8954,27.0176-44.3103,0l-21.6151-241.8333c-1.3713-15.3424-17.5452-24.6804-31.5178-18.1968l-220.2414,102.1974c-24.6054,11.4175-44.3457-22.7737-22.1551-38.3738l198.6263-139.6359c12.6013-8.8588,12.6013-27.5348,0-36.3936l-198.6263-139.6359c-22.1905-15.6001-2.4502-49.7913,22.1551-38.3738l220.2414,102.1974c13.9726,6.4836,30.1465-2.8544,31.5178-18.1968l21.6151-241.8333c2.4148-27.0176,41.8954-27.0176,44.3103,0Z"/>
  <path class="cls-2" d="M733.7578,514.6281l-159.6728,14.2716c-10.13.9054-16.2955,11.5844-12.0146,20.8099l67.4768,145.4165c7.5385,16.2459-15.0365,29.2796-25.3367,14.6281l-92.1959-131.1449c-5.8491-8.3201-18.1801-8.3201-24.0292,0l-92.1959,131.1449c-10.3001,14.6515-32.8752,1.6178-25.3367-14.6281l67.4768-145.4165c4.2809-9.2255-1.8846-19.9045-12.0146-20.8099l-159.6728-14.2716c-17.8386-1.5944-17.8386-27.6618,0-29.2563l159.6728-14.2716c10.13-.9054,16.2955-11.5844,12.0146-20.8099l-67.4768-145.4165c-7.5385-16.2459,15.0365-29.2796,25.3367-14.6281l92.1959,131.1449c5.8491,8.3201,18.1801,8.3201,24.0292,0l92.1959-131.1449c10.3001-14.6515,32.8752-1.6178,25.3367,14.6281l-67.4768,145.4165c-4.2809,9.2255,1.8846,19.9045,12.0146,20.8099l159.6728,14.2716c17.8386,1.5944,17.8386,27.6618,0,29.2563Z"/>
  <path class="cls-1" d="M500.0774,392.9058c-59.2079-.0419-107.2136,47.9637-107.1717,107.1717.0412,58.2159,48.8016,106.9759,107.0175,107.0166,59.2076.0415,107.2127-47.9638,107.171-107.1712-.041-58.2158-48.801-106.9758-107.0168-107.0171ZM557.577,517.8427c1.4726.8502,1.9818,2.7507,1.1316,4.2233l-10.0986,17.4914c-.8502,1.4726-2.7507,1.9818-4.2233,1.1316l-30.9044-17.8427v35.6851c0,1.7006-1.3914,3.092-3.092,3.092h-20.1968c-1.7004,0-3.0917-1.3912-3.0917-3.0917v-35.6855l-30.9041,17.8425c-1.4728.8503-3.3735.341-4.2238-1.1318l-10.0984-17.4911c-.8502-1.4726-.341-3.3731,1.1316-4.2233l30.9044-17.8427-30.9044-17.8427c-1.4727-.8501-1.9821-2.7508-1.1316-4.2233l10.0984-17.4914c.8503-1.4725,2.7508-1.9817,4.2234-1.1313l30.9044,17.8424v-35.6851c0-1.7004,1.3912-3.0917,3.0917-3.0917h20.1971c1.7004,0,3.0917,1.3912,3.0917,3.0917v35.6851l30.9044-17.8424c1.4727-.8505,3.3732-.3412,4.2234,1.1313l10.0984,17.4914c.8505,1.4725.3411,3.3732-1.1316,4.2236l-30.9044,17.8424,30.9044,17.8427Z"/>
</svg>