<?xml version="1.0" encoding="UTF-8"?>
<svg id="Layer_1" data-name="Layer 1" xmlns="http://www.w3.org/2000/svg" viewBox="0 0 1000 1000">
  <defs>
    <style>
      .cls-1 {
        fill: #a00;
      }

      .cls-1, .cls-2 {
        stroke-width: 0px;
      }

      .cls-2 {
        fill: #fff;
      }
    </style>
  </defs>
  <circle class="cls-1" cx="500" cy="500" r="500"/>
  <path class="cls-2" d="M264.9022,587.8432l235.1101-128.6578,235.1101,128.6578,43.4056,64.3967c9.5073,14.105-7.0693,30.8973-22.797,23.0937l-254.6537-126.3517-257.0222,126.663c-15.7282,7.751-32.2474-9.0304-22.7539-23.115l43.6011-64.6867Z"/>
  <path class="cls-2" d="M477.3484,205.5189l-185.2873,320.927,207.9256-121.3275,207.9256,121.3275-185.2873-320.927c-10.0615-17.427-35.2151-17.427-45.2766,0Z"/>
  <path class="cls-2" d="M499.9998,960.8278c-62.2035,0-122.5552-12.1868-179.3803-36.2218-54.8771-23.211-104.1578-56.4359-146.4742-98.7512-42.3152-42.3164-75.5401-91.597-98.7512-146.4742-24.035-56.825-36.2218-117.1768-36.2218-179.3803s12.1868-122.5558,36.2218-179.3809c23.211-54.8771,56.4359-104.1578,98.7512-146.4736,42.3164-42.3158,91.597-75.5407,146.4742-98.7523,56.825-24.0344,117.1768-36.2212,179.3803-36.2212s122.5552,12.1868,179.3803,36.2212c54.8771,23.2116,104.1578,56.4365,146.4742,98.7523,42.3152,42.3158,75.5401,91.5965,98.7512,146.4736,24.035,56.825,36.2218,117.1773,36.2218,179.3809s-12.1868,122.5552-36.2218,179.3803c-23.211,54.8771-56.4359,104.1578-98.7512,146.4742-42.3164,42.3152-91.597,75.5401-146.4742,98.7512-56.825,24.035-117.1768,36.2218-179.3803,36.2218ZM499.9998,75.1773c-234.248,0-424.8224,190.575-424.8224,424.823s190.5744,424.8224,424.8224,424.8224,424.8224-190.5744,424.8224-424.8224S734.2478,75.1773,499.9998,75.1773Z"/>
  <path class="cls-2" d="M560.6588,723.7904l-32.7246-18.8936,32.7246-18.8934c1.5594-.9004,2.0986-2.9128,1.1982-4.4722l-10.6932-18.5214c-.9004-1.5594-2.9128-2.0986-4.4722-1.1982l-32.7245,18.8936v-37.7871c0-1.8006-1.4732-3.2738-3.2738-3.2738h-21.3866c-1.8006,0-3.2738,1.4732-3.2738,3.2738v37.7871l-32.7246-18.8936c-1.5593-.9004-3.5718-.3611-4.4721,1.1982l-10.6932,18.5214c-.9004,1.5594-.3611,3.5718,1.1982,4.4721l32.7246,18.8936-32.7246,18.8936c-1.5594.9003-2.0986,2.9127-1.1982,4.4721l10.6932,18.5214c.9003,1.5594,2.9127,2.0986,4.4721,1.1984l32.7246-18.8936v37.7871c0,1.8005,1.4732,3.2738,3.2738,3.2738h21.3866c1.8006,0,3.2738-1.4733,3.2738-3.2738v-37.7871l32.7245,18.8936c1.5594.9003,3.5718.361,4.4722-1.1984l10.6932-18.5212c.9003-1.5594.3611-3.5718-1.1982-4.4722Z"/>
</svg>