<svg width="834" height="834" viewBox="0 0 834 834" fill="none" xmlns="http://www.w3.org/2000/svg">
<g clip-path="url(#clip0_490_5227)">
<path d="M417 834C647.303 834 834 647.303 834 417C834 186.697 647.303 0 417 0C186.697 0 0 186.697 0 417C0 647.303 186.697 834 417 834Z" fill="#AA0000"/>
<path d="M417 801.33C365.122 801.33 314.789 791.166 267.397 771.121C221.629 751.763 180.528 724.053 145.237 688.762C109.945 653.471 82.2359 612.371 62.8779 566.603C42.8327 519.211 32.6689 468.878 32.6689 417C32.6689 365.122 42.8327 314.788 62.8779 267.397C82.2359 221.629 109.945 180.529 145.237 145.237C180.528 109.946 221.629 82.2363 267.397 62.8783C314.789 42.8336 365.122 32.6698 417 32.6698C468.878 32.6698 519.211 42.8336 566.603 62.8783C612.371 82.2363 653.471 109.946 688.763 145.237C724.053 180.529 751.763 221.629 771.121 267.397C791.166 314.788 801.33 365.122 801.33 417C801.33 468.878 791.166 519.211 771.121 566.603C751.763 612.371 724.054 653.471 688.763 688.762C653.471 724.053 612.371 751.763 566.603 771.121C519.211 791.166 468.878 801.33 417 801.33ZM417 62.698C221.637 62.698 62.6971 221.637 62.6971 417C62.6971 612.363 221.637 771.302 417 771.302C612.363 771.302 771.302 612.363 771.302 417C771.302 221.637 612.363 62.698 417 62.698Z" fill="white"/>
<path d="M467.59 432.757L440.297 417L467.59 401.243C468.89 400.492 469.34 398.814 468.589 397.513L459.671 382.066C458.92 380.766 457.242 380.316 455.941 381.067L428.649 396.824V365.31C428.649 363.808 427.42 362.579 425.919 362.579H408.082C406.58 362.579 405.352 363.808 405.352 365.31V396.824L378.059 381.067C376.759 380.316 375.081 380.766 374.33 382.066L365.412 397.513C364.661 398.814 365.11 400.492 366.411 401.243L393.703 417L366.411 432.757C365.11 433.508 364.661 435.186 365.412 436.487L374.33 451.934C375.081 453.234 376.759 453.684 378.059 452.933L405.352 437.176V468.69C405.352 470.192 406.58 471.421 408.082 471.421H425.919C427.42 471.421 428.649 470.192 428.649 468.69V437.176L455.941 452.933C457.242 453.684 458.92 453.234 459.671 451.934L468.589 436.487C469.34 435.187 468.89 433.508 467.59 432.757Z" fill="white"/>
<path d="M538.099 374.797L567.714 404.412C574.666 411.364 574.666 422.636 567.714 429.588L538.099 459.203C531.147 466.155 531.147 477.427 538.099 484.379L572.742 519.022C579.694 525.974 590.966 525.974 597.918 519.022L687.352 429.588C694.305 422.636 694.305 411.364 687.352 404.412L597.918 314.978C590.966 308.025 579.694 308.025 572.742 314.978L538.099 349.621C531.147 356.573 531.147 367.845 538.099 374.797Z" fill="white"/>
<path d="M374.798 295.902L404.413 266.287C411.365 259.335 422.637 259.335 429.589 266.287L459.204 295.902C466.156 302.854 477.428 302.854 484.38 295.902L519.023 261.259C525.975 254.306 525.975 243.035 519.023 236.082L429.589 146.648C422.637 139.696 411.365 139.696 404.413 146.648L314.979 236.082C308.027 243.035 308.027 254.306 314.979 261.259L349.622 295.902C356.574 302.854 367.846 302.854 374.798 295.902Z" fill="white"/>
<path d="M295.902 459.203L266.288 429.588C259.336 422.636 259.336 411.364 266.288 404.412L295.902 374.797C302.855 367.845 302.855 356.573 295.902 349.621L261.259 314.978C254.307 308.025 243.035 308.025 236.083 314.978L146.649 404.412C139.696 411.364 139.696 422.636 146.649 429.588L236.083 519.022C243.035 525.974 254.307 525.974 261.259 519.022L295.902 484.379C302.855 477.427 302.855 466.155 295.902 459.203Z" fill="white"/>
<path d="M459.203 538.098L429.589 567.713C422.636 574.665 411.364 574.665 404.412 567.713L374.798 538.098C367.845 531.146 356.573 531.146 349.621 538.098L314.978 572.741C308.026 579.694 308.026 590.965 314.978 597.918L404.412 687.352C411.364 694.304 422.636 694.304 429.588 687.352L519.022 597.918C525.975 590.965 525.975 579.694 519.022 572.741L484.379 538.098C477.427 531.146 466.155 531.146 459.203 538.098Z" fill="white"/>
</g>
<defs>
<clipPath id="clip0_490_5227">
<rect width="834" height="834" fill="white"/>
</clipPath>
</defs>
</svg>
