<svg width="25" height="24" viewBox="0 0 25 24" fill="none" xmlns="http://www.w3.org/2000/svg">
<path d="M8 3.375C8 2.339 8.84 1.5 9.875 1.5H10.25C11.2446 1.5 12.1984 1.89509 12.9017 2.59835C13.6049 3.30161 14 4.25544 14 5.25V7.125C14 8.161 14.84 9 15.875 9H17.75C18.7446 9 19.6984 9.39509 20.4017 10.0983C21.1049 10.8016 21.5 11.7554 21.5 12.75V16.125C21.5 17.16 20.66 18 19.625 18H9.875C9.37772 18 8.9008 17.8025 8.54917 17.4508C8.19754 17.0992 8 16.6223 8 16.125V3.375Z" fill="black"/>
<path d="M15.5 5.24992C15.5018 3.98846 15.0475 2.76888 14.221 1.81592C15.8943 2.25588 17.4207 3.13239 18.6441 4.3558C19.8675 5.57922 20.744 7.10563 21.184 8.77892C20.231 7.9524 19.0115 7.49817 17.75 7.49992H15.875C15.7755 7.49992 15.6802 7.46041 15.6098 7.39008C15.5395 7.31976 15.5 7.22437 15.5 7.12492V5.24992ZM5.375 5.99992H6.5V16.1249C6.5 17.02 6.85558 17.8785 7.48851 18.5114C8.12145 19.1443 8.97989 19.4999 9.875 19.4999H17V20.6249C17 21.6599 16.16 22.4999 15.125 22.4999H5.375C4.87772 22.4999 4.40081 22.3024 4.04917 21.9507C3.69754 21.5991 3.5 21.1222 3.5 20.6249V7.87492C3.5 6.83892 4.34 5.99992 5.375 5.99992Z" fill="black"/>
</svg>
