<svg width="13" height="13" viewBox="0 0 13 13" fill="none" xmlns="http://www.w3.org/2000/svg">
<path fill-rule="evenodd" clip-rule="evenodd" d="M0 6.5C0 2.91 2.91 0 6.5 0C10.09 0 13 2.91 13 6.5C13 10.09 10.09 13 6.5 13C2.91 13 0 10.09 0 6.5ZM5.804 5.53867C6.568 5.15667 7.42867 5.84733 7.22133 6.676L6.74867 8.56667L6.77667 8.55333C6.89414 8.50169 7.02698 8.49719 7.14768 8.54077C7.26839 8.58435 7.36771 8.67267 7.4251 8.78745C7.48249 8.90223 7.49355 9.03468 7.456 9.15739C7.41844 9.2801 7.33514 9.38367 7.22333 9.44667L7.19667 9.46133C6.432 9.84333 5.57133 9.15267 5.77867 8.324L6.252 6.43333L6.224 6.44667C6.16503 6.47944 6.10003 6.49994 6.03292 6.50693C5.96581 6.51393 5.89798 6.50726 5.83352 6.48734C5.76905 6.46743 5.70929 6.43467 5.65782 6.39105C5.60635 6.34742 5.56424 6.29383 5.53403 6.2335C5.50382 6.17317 5.48613 6.10735 5.48204 6.04C5.47794 5.97266 5.48751 5.90518 5.51018 5.84163C5.53285 5.77808 5.56815 5.71978 5.61394 5.67023C5.65974 5.62069 5.71509 5.58092 5.77667 5.55333L5.804 5.53867ZM6.5 4.5C6.63261 4.5 6.75979 4.44732 6.85355 4.35355C6.94732 4.25979 7 4.13261 7 4C7 3.86739 6.94732 3.74021 6.85355 3.64645C6.75979 3.55268 6.63261 3.5 6.5 3.5C6.36739 3.5 6.24022 3.55268 6.14645 3.64645C6.05268 3.74021 6 3.86739 6 4C6 4.13261 6.05268 4.25979 6.14645 4.35355C6.24022 4.44732 6.36739 4.5 6.5 4.5Z" fill="#1C1917"/>
</svg>
