<?xml version="1.0" encoding="UTF-8"?>
<svg id="Layer_1" data-name="Layer 1" xmlns="http://www.w3.org/2000/svg" viewBox="0 0 1000 1000">
  <defs>
    <style>
      .cls-1 {
        fill: #bdbdbd;
      }

      .cls-1, .cls-2, .cls-3, .cls-4, .cls-5, .cls-6 {
        stroke-width: 0px;
      }

      .cls-2 {
        fill: #a00;
      }

      .cls-3 {
        fill: #d7d7d7;
      }

      .cls-4 {
        fill: #fff;
      }

      .cls-5 {
        fill: #adadad;
      }

      .cls-6 {
        fill: #fefefe;
      }
    </style>
  </defs>
  <circle class="cls-2" cx="500" cy="500" r="450"/>
  <g>
    <g>
      <g>
        <path class="cls-1" d="M370,400v100.0001h100c0-55.2285-44.7715-100.0001-100-100.0001Z"/>
        <path class="cls-5" d="M370,600c55.2285,0,100-44.7716,100-99.9999h-100v99.9999Z"/>
        <path class="cls-3" d="M270,500.0001c0,55.2283,44.7715,99.9999,100,99.9999v-99.9999h-100Z"/>
        <path class="cls-6" d="M370,400c-55.2285,0-100,44.7716-100,100.0001h100v-100.0001Z"/>
      </g>
      <path class="cls-4" d="M370,400c55.2285,0,100,44.7715,100,100s-44.7715,100-100,100-100-44.7715-100-100,44.7715-100,100-100M370,380c-32.0532,0-62.1877,12.4822-84.8528,35.1471-22.665,22.665-35.1472,52.7997-35.1472,84.8529s12.4822,62.1879,35.1472,84.8529c22.665,22.6649,52.7996,35.1471,84.8528,35.1471s62.1877-12.4822,84.8528-35.1471c22.665-22.665,35.1472-52.7997,35.1472-84.8529s-12.4822-62.1879-35.1472-84.8529c-22.665-22.6649-52.7996-35.1471-84.8528-35.1471h0Z"/>
    </g>
    <g>
      <g>
        <path class="cls-1" d="M630,400v100.0001h100c0-55.2285-44.7715-100.0001-100-100.0001Z"/>
        <path class="cls-5" d="M630,600c55.2285,0,100-44.7716,100-99.9999h-100v99.9999Z"/>
        <path class="cls-3" d="M530,500.0001c0,55.2283,44.7715,99.9999,100,99.9999v-99.9999h-100Z"/>
        <path class="cls-6" d="M630,400c-55.2285,0-100,44.7716-100,100.0001h100v-100.0001Z"/>
      </g>
      <path class="cls-4" d="M630,400c55.2285,0,100,44.7715,100,100s-44.7715,100-100,100-100-44.7715-100-100,44.7715-100,100-100M630,380c-32.0532,0-62.1877,12.4822-84.8528,35.1471-22.665,22.665-35.1472,52.7997-35.1472,84.8529s12.4822,62.1879,35.1472,84.8529c22.665,22.6649,52.7996,35.1471,84.8528,35.1471s62.1877-12.4822,84.8528-35.1471c22.665-22.665,35.1472-52.7997,35.1472-84.8529s-12.4822-62.1879-35.1472-84.8529c-22.665-22.6649-52.7996-35.1471-84.8528-35.1471h0Z"/>
    </g>
  </g>
</svg>