<?xml version="1.0" encoding="UTF-8"?>
<svg id="Layer_1" data-name="Layer 1" xmlns="http://www.w3.org/2000/svg" viewBox="0 0 1000 1000">
  <defs>
    <style>
      .cls-1 {
        fill: #bdbdbd;
      }

      .cls-1, .cls-2, .cls-3, .cls-4, .cls-5, .cls-6 {
        stroke-width: 0px;
      }

      .cls-2 {
        fill: #a00;
      }

      .cls-3 {
        fill: #d7d7d7;
      }

      .cls-4 {
        fill: #fff;
      }

      .cls-5 {
        fill: #adadad;
      }

      .cls-6 {
        fill: #fefefe;
      }
    </style>
  </defs>
  <circle class="cls-2" cx="500" cy="500" r="450"/>
  <g>
    <g>
      <g>
        <path class="cls-1" d="M383.691,477.3617v87.7124h87.7123c0-48.4422-39.2701-87.7124-87.7123-87.7124Z"/>
        <path class="cls-5" d="M383.691,652.7864c48.4422,0,87.7123-39.2702,87.7123-87.7122h-87.7123v87.7122Z"/>
        <path class="cls-3" d="M295.9787,565.0741c0,48.442,39.2701,87.7122,87.7123,87.7122v-87.7122h-87.7123Z"/>
        <path class="cls-6" d="M383.691,477.3617c-48.4422,0-87.7123,39.2702-87.7123,87.7124h87.7123v-87.7124Z"/>
      </g>
      <path class="cls-4" d="M383.6912,477.3618c48.4421,0,87.7122,39.27,87.7122,87.7122s-39.27,87.7124-87.7122,87.7124-87.7124-39.2703-87.7124-87.7124,39.27-87.7122,87.7124-87.7122M383.6912,457.3618c-28.771,0-55.8201,11.2039-76.1643,31.5481-20.344,20.3442-31.5481,47.3931-31.5481,76.1641s11.2041,55.8201,31.5481,76.1641,47.3933,31.5483,76.1643,31.5483,55.8198-11.2041,76.1641-31.5483c20.3442-20.344,31.5481-47.3931,31.5481-76.1641s-11.2039-55.8198-31.5481-76.1641-47.3931-31.5481-76.1641-31.5481h0Z"/>
    </g>
    <g>
      <g>
        <path class="cls-1" d="M499.5273,276.7274v87.7124h87.7123c0-48.4422-39.2701-87.7124-87.7123-87.7124Z"/>
        <path class="cls-5" d="M499.5273,452.152c48.4422,0,87.7123-39.2702,87.7123-87.7122h-87.7123v87.7122Z"/>
        <path class="cls-3" d="M411.815,364.4398c0,48.442,39.2701,87.7122,87.7123,87.7122v-87.7122h-87.7123Z"/>
        <path class="cls-6" d="M499.5273,276.7274c-48.4422,0-87.7123,39.2702-87.7123,87.7124h87.7123v-87.7124Z"/>
      </g>
      <path class="cls-4" d="M499.5273,276.7273c48.4421,0,87.7122,39.2703,87.7122,87.7124s-39.27,87.7124-87.7122,87.7124-87.7124-39.2703-87.7124-87.7124,39.2703-87.7124,87.7124-87.7124M499.5273,256.7273c-28.771,0-55.8198,11.2041-76.1641,31.5483s-31.5483,47.3931-31.5483,76.1641,11.2041,55.8198,31.5483,76.1641,47.3931,31.5483,76.1641,31.5483,55.8198-11.2041,76.1641-31.5483c20.344-20.3442,31.5481-47.3931,31.5481-76.1641s-11.2041-55.8198-31.5481-76.1641c-20.3442-20.3442-47.3931-31.5483-76.1641-31.5483h0Z"/>
    </g>
    <g>
      <g>
        <path class="cls-1" d="M616.309,477.3617v87.7124h87.7123c0-48.4422-39.2701-87.7124-87.7123-87.7124Z"/>
        <path class="cls-5" d="M616.309,652.7864c48.4422,0,87.7123-39.2702,87.7123-87.7122h-87.7123v87.7122Z"/>
        <path class="cls-3" d="M528.5966,565.0741c0,48.442,39.2701,87.7122,87.7123,87.7122v-87.7122h-87.7123Z"/>
        <path class="cls-6" d="M616.309,477.3617c-48.4422,0-87.7123,39.2702-87.7123,87.7124h87.7123v-87.7124Z"/>
      </g>
      <path class="cls-4" d="M616.3088,477.3618c48.4424,0,87.7124,39.27,87.7124,87.7122s-39.27,87.7124-87.7124,87.7124-87.7122-39.2703-87.7122-87.7124,39.27-87.7122,87.7122-87.7122M616.3088,457.3618c-28.771,0-55.8198,11.2039-76.1641,31.5481s-31.5481,47.3931-31.5481,76.1641,11.2039,55.8201,31.5481,76.1641c20.3442,20.3442,47.3931,31.5483,76.1641,31.5483s55.8201-11.2041,76.1643-31.5483c20.344-20.344,31.5481-47.3931,31.5481-76.1641s-11.2041-55.8198-31.5481-76.1641c-20.3442-20.3442-47.3933-31.5481-76.1643-31.5481h0Z"/>
    </g>
  </g>
</svg>