<?xml version="1.0" encoding="UTF-8"?>
<svg id="Layer_1" data-name="Layer 1" xmlns="http://www.w3.org/2000/svg" xmlns:xlink="http://www.w3.org/1999/xlink" viewBox="0 0 1000 1000">
  <defs>
    <style>
      .cls-1 {
        fill: url(#linear-gradient);
      }

      .cls-1, .cls-2, .cls-3, .cls-4, .cls-5, .cls-6 {
        stroke-width: 0px;
      }

      .cls-2 {
        fill: #fcc185;
      }

      .cls-3 {
        fill: #b05e24;
      }

      .cls-4 {
        fill: #d98b4b;
      }

      .cls-5 {
        fill: url(#linear-gradient-2);
      }

      .cls-6 {
        fill: #fff;
      }
    </style>
    <linearGradient id="linear-gradient" x1="181.8019" y1="181.8019" x2="818.1981" y2="818.1981" gradientUnits="userSpaceOnUse">
      <stop offset="0" stop-color="#efbe7f"/>
      <stop offset="1" stop-color="#9a6143"/>
    </linearGradient>
    <linearGradient id="linear-gradient-2" x1="234.835" y1="234.835" x2="765.165" y2="765.165" xlink:href="#linear-gradient"/>
  </defs>
  <circle class="cls-1" cx="500" cy="500" r="450"/>
  <circle class="cls-5" cx="500" cy="500" r="375"/>
  <g>
    <g>
      <path class="cls-4" d="M500,350v150.0002h150c0-82.8427-67.1573-150.0002-150-150.0002Z"/>
      <path class="cls-3" d="M500,650c82.8427,0,150-67.1574,150-149.9998h-150v149.9998Z"/>
      <path class="cls-4" d="M350,500.0002c0,82.8424,67.1573,149.9998,150,149.9998v-149.9998h-150Z"/>
      <path class="cls-2" d="M500,350c-82.8427,0-150,67.1574-150,150.0002h150v-150.0002Z"/>
    </g>
    <path class="cls-6" d="M500,350c82.8428,0,150,67.1573,150,150s-67.1572,150-150,150-150-67.1573-150-150,67.1572-150,150-150M500,330c-22.9412,0-45.2065,4.4976-66.1777,13.3676-20.2461,8.5633-38.4246,20.8182-54.0305,36.4242-15.606,15.6061-27.8608,33.7845-36.4241,54.0304-8.8701,20.9714-13.3677,43.2367-13.3677,66.1778s4.4976,45.2065,13.3677,66.1778c8.5632,20.2458,20.8181,38.4243,36.4241,54.0304,15.606,15.606,33.7844,27.8609,54.0305,36.4242,20.9712,8.8701,43.2366,13.3676,66.1777,13.3676s45.2065-4.4976,66.1779-13.3676c20.2458-8.5633,38.4243-20.8182,54.0303-36.4242,15.6062-15.6061,27.861-33.7845,36.4242-54.0304,8.8701-20.9713,13.3677-43.2367,13.3677-66.1778s-4.4976-45.2065-13.3677-66.1778c-8.5632-20.2458-20.818-38.4243-36.4242-54.0304-15.606-15.606-33.7844-27.8609-54.0303-36.4242-20.9713-8.8701-43.2368-13.3676-66.1779-13.3676h0Z"/>
  </g>
</svg>