<?xml version="1.0" encoding="UTF-8"?>
<svg id="Layer_1" data-name="Layer 1" xmlns="http://www.w3.org/2000/svg" xmlns:xlink="http://www.w3.org/1999/xlink" viewBox="0 0 1000 1000">
  <defs>
    <style>
      .cls-1 {
        fill: url(#linear-gradient);
      }

      .cls-1, .cls-2, .cls-3, .cls-4, .cls-5, .cls-6 {
        stroke-width: 0px;
      }

      .cls-2 {
        fill: #fcc185;
      }

      .cls-3 {
        fill: #b05e24;
      }

      .cls-4 {
        fill: #d98b4b;
      }

      .cls-5 {
        fill: url(#linear-gradient-2);
      }

      .cls-6 {
        fill: #fff;
      }
    </style>
    <linearGradient id="linear-gradient" x1="181.8019" y1="181.8019" x2="818.1981" y2="818.1981" gradientUnits="userSpaceOnUse">
      <stop offset="0" stop-color="#efbe7f"/>
      <stop offset="1" stop-color="#9a6143"/>
    </linearGradient>
    <linearGradient id="linear-gradient-2" x1="234.835" y1="234.835" x2="765.165" y2="765.165" xlink:href="#linear-gradient"/>
  </defs>
  <circle class="cls-1" cx="500" cy="500" r="450"/>
  <circle class="cls-5" cx="500" cy="500" r="375"/>
  <g>
    <g>
      <g>
        <path class="cls-4" d="M370,400v100.0001h100c0-55.2285-44.7715-100.0001-100-100.0001Z"/>
        <path class="cls-3" d="M370,600c55.2285,0,100-44.7716,100-99.9999h-100v99.9999Z"/>
        <path class="cls-4" d="M270,500.0001c0,55.2283,44.7715,99.9999,100,99.9999v-99.9999h-100Z"/>
        <path class="cls-2" d="M370,400c-55.2285,0-100,44.7716-100,100.0001h100v-100.0001Z"/>
      </g>
      <path class="cls-6" d="M370,400c55.2285,0,100,44.7715,100,100s-44.7715,100-100,100-100-44.7715-100-100,44.7715-100,100-100M370,380c-32.0532,0-62.1877,12.4822-84.8528,35.1471-22.665,22.665-35.1472,52.7997-35.1472,84.8529s12.4822,62.1879,35.1472,84.8529c22.665,22.6649,52.7996,35.1471,84.8528,35.1471s62.1877-12.4822,84.8528-35.1471c22.665-22.665,35.1472-52.7997,35.1472-84.8529s-12.4822-62.1879-35.1472-84.8529c-22.665-22.6649-52.7996-35.1471-84.8528-35.1471h0Z"/>
    </g>
    <g>
      <g>
        <path class="cls-4" d="M630,400v100.0001h100c0-55.2285-44.7715-100.0001-100-100.0001Z"/>
        <path class="cls-3" d="M630,600c55.2285,0,100-44.7716,100-99.9999h-100v99.9999Z"/>
        <path class="cls-4" d="M530,500.0001c0,55.2283,44.7715,99.9999,100,99.9999v-99.9999h-100Z"/>
        <path class="cls-2" d="M630,400c-55.2285,0-100,44.7716-100,100.0001h100v-100.0001Z"/>
      </g>
      <path class="cls-6" d="M630,400c55.2285,0,100,44.7715,100,100s-44.7715,100-100,100-100-44.7715-100-100,44.7715-100,100-100M630,380c-32.0532,0-62.1879,12.4822-84.8529,35.1471-22.6649,22.665-35.1471,52.7997-35.1471,84.8529s12.4822,62.1879,35.1471,84.8529c22.665,22.6649,52.7997,35.1471,84.8529,35.1471s62.1879-12.4822,84.8529-35.1471c22.6649-22.665,35.1471-52.7997,35.1471-84.8529s-12.4822-62.1879-35.1471-84.8529c-22.665-22.6649-52.7997-35.1471-84.8529-35.1471h0Z"/>
    </g>
  </g>
</svg>