<?xml version="1.0" encoding="UTF-8"?>
<svg id="Layer_1" data-name="Layer 1" xmlns="http://www.w3.org/2000/svg" xmlns:xlink="http://www.w3.org/1999/xlink" viewBox="0 0 1000 1000">
  <defs>
    <style>
      .cls-1 {
        fill: url(#linear-gradient);
      }

      .cls-1, .cls-2, .cls-3, .cls-4, .cls-5, .cls-6, .cls-7 {
        stroke-width: 0px;
      }

      .cls-2 {
        fill: #faf666;
      }

      .cls-3 {
        fill: #ca870b;
      }

      .cls-4 {
        fill: #d4a850;
      }

      .cls-5 {
        fill: url(#linear-gradient-2);
      }

      .cls-6 {
        fill: #f2da67;
      }

      .cls-7 {
        fill: #fff;
      }
    </style>
    <linearGradient id="linear-gradient" x1="181.8019" y1="181.8019" x2="818.1981" y2="818.1981" gradientUnits="userSpaceOnUse">
      <stop offset="0" stop-color="#ede27a"/>
      <stop offset="1" stop-color="#b4721a"/>
    </linearGradient>
    <linearGradient id="linear-gradient-2" x1="234.835" y1="234.835" x2="765.165" y2="765.165" xlink:href="#linear-gradient"/>
  </defs>
  <circle class="cls-1" cx="500" cy="500" r="450"/>
  <circle class="cls-5" cx="500" cy="500" r="375"/>
  <g>
    <g>
      <g>
        <path class="cls-6" d="M383.691,477.3617v87.7124h87.7123c0-48.4422-39.2701-87.7124-87.7123-87.7124Z"/>
        <path class="cls-3" d="M383.691,652.7864c48.4422,0,87.7123-39.2702,87.7123-87.7122h-87.7123v87.7122Z"/>
        <path class="cls-4" d="M295.9787,565.0741c0,48.442,39.2701,87.7122,87.7123,87.7122v-87.7122h-87.7123Z"/>
        <path class="cls-2" d="M383.691,477.3617c-48.4422,0-87.7123,39.2702-87.7123,87.7124h87.7123v-87.7124Z"/>
      </g>
      <path class="cls-7" d="M383.691,477.3618c48.4421,0,87.7123,39.27,87.7123,87.7122s-39.2701,87.7124-87.7123,87.7124-87.7123-39.2703-87.7123-87.7124,39.2701-87.7122,87.7123-87.7122M383.691,457.3618c-28.771,0-55.8199,11.2039-76.1641,31.5481-20.3441,20.3442-31.5482,47.3931-31.5482,76.1641s11.204,55.8201,31.5482,76.1641c20.3441,20.3442,47.3931,31.5483,76.1641,31.5483s55.8199-11.2041,76.1641-31.5483c20.3442-20.344,31.5482-47.3931,31.5482-76.1641s-11.2041-55.8198-31.5482-76.1641c-20.3441-20.3442-47.3931-31.5481-76.1641-31.5481h0Z"/>
    </g>
    <g>
      <g>
        <path class="cls-6" d="M499.5273,276.7274v87.7124h87.7123c0-48.4422-39.2701-87.7124-87.7123-87.7124Z"/>
        <path class="cls-3" d="M499.5273,452.152c48.4422,0,87.7123-39.2702,87.7123-87.7122h-87.7123v87.7122Z"/>
        <path class="cls-4" d="M411.815,364.4398c0,48.442,39.2701,87.7122,87.7123,87.7122v-87.7122h-87.7123Z"/>
        <path class="cls-2" d="M499.5273,276.7274c-48.4422,0-87.7123,39.2702-87.7123,87.7124h87.7123v-87.7124Z"/>
      </g>
      <path class="cls-7" d="M499.5273,276.7273c48.4421,0,87.7123,39.2703,87.7123,87.7124s-39.2701,87.7124-87.7123,87.7124-87.7123-39.2703-87.7123-87.7124,39.2701-87.7124,87.7123-87.7124M499.5273,256.7273c-28.771,0-55.8199,11.2041-76.1641,31.5483-20.3442,20.3442-31.5482,47.3931-31.5482,76.1641s11.204,55.8198,31.5482,76.1641c20.3441,20.3442,47.3931,31.5483,76.1641,31.5483s55.8199-11.2041,76.1641-31.5483c20.3442-20.3442,31.5482-47.3931,31.5482-76.1641s-11.204-55.8198-31.5482-76.1641c-20.3441-20.3442-47.3931-31.5483-76.1641-31.5483h0Z"/>
    </g>
    <g>
      <g>
        <path class="cls-6" d="M616.309,477.3617v87.7124h87.7123c0-48.4422-39.2701-87.7124-87.7123-87.7124Z"/>
        <path class="cls-3" d="M616.309,652.7864c48.4422,0,87.7123-39.2702,87.7123-87.7122h-87.7123v87.7122Z"/>
        <path class="cls-4" d="M528.5966,565.0741c0,48.442,39.2701,87.7122,87.7123,87.7122v-87.7122h-87.7123Z"/>
        <path class="cls-2" d="M616.309,477.3617c-48.4422,0-87.7123,39.2702-87.7123,87.7124h87.7123v-87.7124Z"/>
      </g>
      <path class="cls-7" d="M616.309,477.3618c48.4421,0,87.7123,39.27,87.7123,87.7122s-39.2701,87.7124-87.7123,87.7124-87.7123-39.2703-87.7123-87.7124,39.2701-87.7122,87.7123-87.7122M616.309,457.3618c-28.771,0-55.8199,11.2039-76.1641,31.5481-20.3441,20.3442-31.5482,47.3931-31.5482,76.1641s11.204,55.8201,31.5482,76.1641c20.3441,20.3442,47.3931,31.5483,76.1641,31.5483s55.8199-11.2041,76.1641-31.5483c20.3442-20.344,31.5482-47.3931,31.5482-76.1641s-11.2041-55.8198-31.5482-76.1641c-20.3441-20.3442-47.3931-31.5481-76.1641-31.5481h0Z"/>
    </g>
  </g>
</svg>