<?xml version="1.0" encoding="UTF-8"?>
<svg id="Layer_1" data-name="Layer 1" xmlns="http://www.w3.org/2000/svg" xmlns:xlink="http://www.w3.org/1999/xlink" viewBox="0 0 1000 1000">
  <defs>
    <style>
      .cls-1 {
        fill: url(#linear-gradient);
      }

      .cls-1, .cls-2, .cls-3, .cls-4, .cls-5, .cls-6, .cls-7, .cls-8 {
        stroke-width: 0px;
      }

      .cls-2 {
        fill: #e77da5;
      }

      .cls-3 {
        fill: #ea205a;
      }

      .cls-4 {
        fill: #fdb9d2;
      }

      .cls-5 {
        fill: #ed1c55;
      }

      .cls-6 {
        fill: #e93c96;
      }

      .cls-7 {
        fill: #fb809f;
      }

      .cls-8 {
        fill: #fff;
      }
    </style>
    <linearGradient id="linear-gradient" x1="270.1903" y1="270.1903" x2="729.8097" y2="729.8097" gradientUnits="userSpaceOnUse">
      <stop offset="0" stop-color="#e77da5"/>
      <stop offset="1" stop-color="#ed1c55"/>
    </linearGradient>
  </defs>
  <path class="cls-6" d="M889.7715,725.0347l-389.7715-225.0347v450c166.5479,0,311.959-90.4809,389.7715-224.9653Z"/>
  <path class="cls-3" d="M889.7715,725.0347c38.3018-66.1975,60.2285-143.0544,60.2285-225.0347s-21.9268-158.8372-60.2285-225.0347l-389.7715,225.0347,389.7715,225.0347Z"/>
  <path class="cls-7" d="M889.7715,274.9653c-77.8125-134.4844-223.2236-224.9653-389.7715-224.9653v450l389.7715-225.0347Z"/>
  <path class="cls-5" d="M110.2285,274.9653l389.7715,225.0347V50c-166.5479,0-311.959,90.4809-389.7715,224.9653Z"/>
  <path class="cls-4" d="M110.2285,274.9653c-38.3018,66.1975-60.2285,143.0544-60.2285,225.0347s21.9268,158.8372,60.2285,225.0347l389.7715-225.0347L110.2285,274.9653Z"/>
  <path class="cls-2" d="M110.2285,725.0347c77.8125,134.4844,223.2236,224.9653,389.7715,224.9653v-450l-389.7715,225.0347Z"/>
  <circle class="cls-1" cx="500" cy="500" r="325"/>
  <g>
    <g>
      <g>
        <path class="cls-7" d="M370,400v100.0001h100c0-55.2285-44.7715-100.0001-100-100.0001Z"/>
        <path class="cls-3" d="M370,600c55.2285,0,100-44.7716,100-99.9999h-100v99.9999Z"/>
        <path class="cls-2" d="M270,500.0001c0,55.2283,44.7715,99.9999,100,99.9999v-99.9999h-100Z"/>
        <path class="cls-4" d="M370,400c-55.2285,0-100,44.7716-100,100.0001h100v-100.0001Z"/>
      </g>
      <path class="cls-8" d="M370,400c55.2285,0,100,44.7715,100,100s-44.7715,100-100,100-100-44.7715-100-100,44.7715-100,100-100M370,380c-32.0532,0-62.1877,12.4822-84.8528,35.1471-22.665,22.665-35.1472,52.7997-35.1472,84.8529s12.4822,62.1879,35.1472,84.8529c22.665,22.6649,52.7996,35.1471,84.8528,35.1471s62.1877-12.4822,84.8528-35.1471c22.665-22.665,35.1472-52.7997,35.1472-84.8529s-12.4822-62.1879-35.1472-84.8529c-22.665-22.6649-52.7996-35.1471-84.8528-35.1471h0Z"/>
    </g>
    <g>
      <g>
        <path class="cls-7" d="M630,400v100.0001h100c0-55.2285-44.7715-100.0001-100-100.0001Z"/>
        <path class="cls-3" d="M630,600c55.2285,0,100-44.7716,100-99.9999h-100v99.9999Z"/>
        <path class="cls-2" d="M530,500.0001c0,55.2283,44.7715,99.9999,100,99.9999v-99.9999h-100Z"/>
        <path class="cls-4" d="M630,400c-55.2285,0-100,44.7716-100,100.0001h100v-100.0001Z"/>
      </g>
      <path class="cls-8" d="M630,400c55.2285,0,100,44.7715,100,100s-44.7715,100-100,100-100-44.7715-100-100,44.7715-100,100-100M630,380c-32.0532,0-62.188,12.4822-84.853,35.1471-22.6648,22.665-35.147,52.7997-35.147,84.8529s12.4822,62.1879,35.147,84.8529c22.665,22.6649,52.7998,35.1471,84.853,35.1471s62.188-12.4822,84.853-35.1471c22.665-22.665,35.147-52.7997,35.147-84.8529s-12.4819-62.1879-35.147-84.8529c-22.665-22.6649-52.7998-35.1471-84.853-35.1471h0Z"/>
    </g>
  </g>
</svg>