<?xml version="1.0" encoding="UTF-8"?>
<svg id="Layer_1" data-name="Layer 1" xmlns="http://www.w3.org/2000/svg" xmlns:xlink="http://www.w3.org/1999/xlink" viewBox="0 0 1000 1000">
  <defs>
    <style>
      .cls-1 {
        fill: url(#linear-gradient);
      }

      .cls-1, .cls-2, .cls-3, .cls-4, .cls-5, .cls-6, .cls-7, .cls-8 {
        stroke-width: 0px;
      }

      .cls-2 {
        fill: #9f1a37;
      }

      .cls-3 {
        fill: #8b0025;
      }

      .cls-4 {
        fill: url(#linear-gradient-2);
      }

      .cls-5 {
        fill: #dd274f;
      }

      .cls-6 {
        fill: #fff;
      }

      .cls-7 {
        fill: #ffb6c8;
      }

      .cls-8 {
        fill: #ef141a;
      }
    </style>
    <linearGradient id="linear-gradient" x1="500" y1="500" x2="950" y2="500" gradientUnits="userSpaceOnUse">
      <stop offset="0" stop-color="#e22727"/>
      <stop offset="1" stop-color="#a00"/>
    </linearGradient>
    <linearGradient id="linear-gradient-2" x1="270.1903" y1="270.1903" x2="729.8097" y2="729.8097" gradientUnits="userSpaceOnUse">
      <stop offset="0" stop-color="#e22727"/>
      <stop offset=".3939" stop-color="#fc4959"/>
      <stop offset="1" stop-color="#a00"/>
    </linearGradient>
  </defs>
  <path class="cls-3" d="M889.7715,725.0347l-389.7715-225.0347v450c166.5479,0,311.959-90.4809,389.7715-224.9653Z"/>
  <path class="cls-1" d="M889.7715,725.0347c38.3018-66.1975,60.2285-143.0544,60.2285-225.0347s-21.9268-158.8372-60.2285-225.0347l-389.7715,225.0347,389.7715,225.0347Z"/>
  <path class="cls-5" d="M889.7715,274.9653c-77.8125-134.4844-223.2236-224.9653-389.7715-224.9653v450l389.7715-225.0347Z"/>
  <path class="cls-2" d="M110.2285,274.9653l389.7715,225.0347V50c-166.5479,0-311.959,90.4809-389.7715,224.9653Z"/>
  <path class="cls-7" d="M110.2285,274.9653c-38.3018,66.1975-60.2285,143.0544-60.2285,225.0347s21.9268,158.8372,60.2285,225.0347l389.7715-225.0347L110.2285,274.9653Z"/>
  <path class="cls-8" d="M110.2285,725.0347c77.8125,134.4844,223.2236,224.9653,389.7715,224.9653v-450l-389.7715,225.0347Z"/>
  <circle class="cls-4" cx="500" cy="500" r="325"/>
  <g>
    <g>
      <path class="cls-5" d="M500,350v150.0002h150c0-82.8427-67.1573-150.0002-150-150.0002Z"/>
      <path class="cls-2" d="M500,650c82.8427,0,150-67.1574,150-149.9998h-150v149.9998Z"/>
      <path class="cls-8" d="M350,500.0002c0,82.8424,67.1573,149.9998,150,149.9998v-149.9998h-150Z"/>
      <path class="cls-7" d="M500,350c-82.8427,0-150,67.1574-150,150.0002h150v-150.0002Z"/>
    </g>
    <path class="cls-6" d="M500,350c82.8428,0,150,67.1573,150,150s-67.1572,150-150,150-150-67.1573-150-150,67.1572-150,150-150M500,330c-22.9409,0-45.2065,4.4976-66.1777,13.3676-20.2461,8.5633-38.4243,20.8182-54.0303,36.4242-15.6064,15.6061-27.8608,33.7845-36.4243,54.0304-8.8701,20.9714-13.3677,43.2367-13.3677,66.1778s4.4976,45.2065,13.3677,66.1778c8.5635,20.2458,20.8179,38.4243,36.4243,54.0304,15.606,15.606,33.7842,27.8609,54.0303,36.4242,20.9712,8.8701,43.2368,13.3676,66.1777,13.3676s45.2065-4.4976,66.1777-13.3676c20.2461-8.5633,38.4243-20.8182,54.0303-36.4242,15.6064-15.6061,27.8608-33.7845,36.4243-54.0304,8.8701-20.9713,13.3677-43.2367,13.3677-66.1778s-4.4976-45.2065-13.3677-66.1778c-8.5635-20.2458-20.8179-38.4243-36.4243-54.0304-15.606-15.606-33.7842-27.8609-54.0303-36.4242-20.9712-8.8701-43.2368-13.3676-66.1777-13.3676h0Z"/>
  </g>
</svg>