<?xml version="1.0" encoding="UTF-8"?>
<svg id="Layer_1" data-name="Layer 1" xmlns="http://www.w3.org/2000/svg" xmlns:xlink="http://www.w3.org/1999/xlink" viewBox="0 0 1000 1000">
  <defs>
    <style>
      .cls-1 {
        fill: url(#linear-gradient);
      }

      .cls-1, .cls-2, .cls-3, .cls-4, .cls-5, .cls-6, .cls-7, .cls-8 {
        stroke-width: 0px;
      }

      .cls-2 {
        fill: #9f1a37;
      }

      .cls-3 {
        fill: #8b0025;
      }

      .cls-4 {
        fill: url(#linear-gradient-2);
      }

      .cls-5 {
        fill: #dd274f;
      }

      .cls-6 {
        fill: #fff;
      }

      .cls-7 {
        fill: #ffb6c8;
      }

      .cls-8 {
        fill: #ef141a;
      }
    </style>
    <linearGradient id="linear-gradient" x1="500" y1="500" x2="950" y2="500" gradientUnits="userSpaceOnUse">
      <stop offset="0" stop-color="#e22727"/>
      <stop offset="1" stop-color="#a00"/>
    </linearGradient>
    <linearGradient id="linear-gradient-2" x1="270.1903" y1="270.1903" x2="729.8097" y2="729.8097" gradientUnits="userSpaceOnUse">
      <stop offset="0" stop-color="#e22727"/>
      <stop offset=".3939" stop-color="#fc4959"/>
      <stop offset="1" stop-color="#a00"/>
    </linearGradient>
  </defs>
  <path class="cls-3" d="M889.7715,725.0347l-389.7715-225.0347v450c166.5479,0,311.959-90.4809,389.7715-224.9653Z"/>
  <path class="cls-1" d="M889.7715,725.0347c38.3018-66.1975,60.2285-143.0544,60.2285-225.0347s-21.9268-158.8372-60.2285-225.0347l-389.7715,225.0347,389.7715,225.0347Z"/>
  <path class="cls-5" d="M889.7715,274.9653c-77.8125-134.4844-223.2236-224.9653-389.7715-224.9653v450l389.7715-225.0347Z"/>
  <path class="cls-2" d="M110.2285,274.9653l389.7715,225.0347V50c-166.5479,0-311.959,90.4809-389.7715,224.9653Z"/>
  <path class="cls-7" d="M110.2285,274.9653c-38.3018,66.1975-60.2285,143.0544-60.2285,225.0347s21.9268,158.8372,60.2285,225.0347l389.7715-225.0347L110.2285,274.9653Z"/>
  <path class="cls-8" d="M110.2285,725.0347c77.8125,134.4844,223.2236,224.9653,389.7715,224.9653v-450l-389.7715,225.0347Z"/>
  <circle class="cls-4" cx="500" cy="500" r="325"/>
  <g>
    <g>
      <g>
        <path class="cls-5" d="M383.691,477.3617v87.7124h87.7123c0-48.4422-39.2701-87.7124-87.7123-87.7124Z"/>
        <path class="cls-2" d="M383.691,652.7864c48.4422,0,87.7123-39.2702,87.7123-87.7122h-87.7123v87.7122Z"/>
        <path class="cls-8" d="M295.9787,565.0741c0,48.442,39.2701,87.7122,87.7123,87.7122v-87.7122h-87.7123Z"/>
        <path class="cls-7" d="M383.691,477.3617c-48.4422,0-87.7123,39.2702-87.7123,87.7124h87.7123v-87.7124Z"/>
      </g>
      <path class="cls-6" d="M383.6909,477.3618c48.4424,0,87.7124,39.27,87.7124,87.7122s-39.27,87.7124-87.7124,87.7124-87.7124-39.2703-87.7124-87.7124,39.2705-87.7122,87.7124-87.7122M383.6909,457.3618c-28.771,0-55.8198,11.2039-76.1641,31.5481s-31.5483,47.3931-31.5483,76.1641,11.2041,55.8201,31.5483,76.1641c20.3442,20.3442,47.3931,31.5483,76.1641,31.5483s55.8203-11.2041,76.1641-31.5483c20.3442-20.344,31.5483-47.3931,31.5483-76.1641s-11.2041-55.8198-31.5483-76.1641c-20.3438-20.3442-47.3931-31.5481-76.1641-31.5481h0Z"/>
    </g>
    <g>
      <g>
        <path class="cls-5" d="M499.5273,276.7274v87.7124h87.7123c0-48.4422-39.2701-87.7124-87.7123-87.7124Z"/>
        <path class="cls-2" d="M499.5273,452.152c48.4422,0,87.7123-39.2702,87.7123-87.7122h-87.7123v87.7122Z"/>
        <path class="cls-8" d="M411.815,364.4398c0,48.442,39.2701,87.7122,87.7123,87.7122v-87.7122h-87.7123Z"/>
        <path class="cls-7" d="M499.5273,276.7274c-48.4422,0-87.7123,39.2702-87.7123,87.7124h87.7123v-87.7124Z"/>
      </g>
      <path class="cls-6" d="M499.5273,276.7273c48.4419,0,87.7124,39.2703,87.7124,87.7124s-39.2705,87.7124-87.7124,87.7124-87.7124-39.2703-87.7124-87.7124,39.27-87.7124,87.7124-87.7124M499.5273,256.7273c-28.771,0-55.8203,11.2041-76.1641,31.5483-20.3442,20.3442-31.5483,47.3931-31.5483,76.1641s11.2041,55.8198,31.5483,76.1641c20.3438,20.3442,47.3931,31.5483,76.1641,31.5483s55.8198-11.2041,76.1641-31.5483,31.5483-47.3931,31.5483-76.1641-11.2041-55.8198-31.5483-76.1641-47.3931-31.5483-76.1641-31.5483h0Z"/>
    </g>
    <g>
      <g>
        <path class="cls-5" d="M616.309,477.3617v87.7124h87.7123c0-48.4422-39.2701-87.7124-87.7123-87.7124Z"/>
        <path class="cls-2" d="M616.309,652.7864c48.4422,0,87.7123-39.2702,87.7123-87.7122h-87.7123v87.7122Z"/>
        <path class="cls-8" d="M528.5966,565.0741c0,48.442,39.2701,87.7122,87.7123,87.7122v-87.7122h-87.7123Z"/>
        <path class="cls-7" d="M616.309,477.3617c-48.4422,0-87.7123,39.2702-87.7123,87.7124h87.7123v-87.7124Z"/>
      </g>
      <path class="cls-6" d="M616.3091,477.3618c48.4419,0,87.7124,39.27,87.7124,87.7122s-39.2705,87.7124-87.7124,87.7124-87.7124-39.2703-87.7124-87.7124,39.27-87.7122,87.7124-87.7122M616.3091,457.3618c-28.771,0-55.8203,11.2039-76.1641,31.5481-20.3442,20.3442-31.5483,47.3931-31.5483,76.1641s11.2041,55.8201,31.5483,76.1641c20.3438,20.3442,47.3931,31.5483,76.1641,31.5483s55.8198-11.2041,76.1641-31.5483c20.3442-20.344,31.5483-47.3931,31.5483-76.1641s-11.2041-55.8198-31.5483-76.1641-47.3931-31.5481-76.1641-31.5481h0Z"/>
    </g>
  </g>
</svg>